<svg width="18" height="17" viewBox="0 0 18 17" fill="none" xmlns="http://www.w3.org/2000/svg">
	<path d="M17.2266 9.16406L10.3516 15.7266C9.88281 16.0911 9.4401 16.0911 9.02344 15.7266C8.65885 15.2578 8.65885 14.8151 9.02344 14.3984L14.2188 9.4375H0.9375C0.364583 9.38542 0.0520833 9.07292 0 8.5C0.0520833 7.92708 0.364583 7.61458 0.9375 7.5625H14.2188L9.0625 2.60156C8.67188 2.1849 8.65885 1.74219 9.02344 1.27344C9.4401 0.908854 9.88281 0.908854 10.3516 1.27344L17.2266 7.83594C17.4089 8.01823 17.5 8.23958 17.5 8.5C17.5 8.76042 17.4089 8.98177 17.2266 9.16406Z" fill="#00589B" />
</svg>
