<svg xmlns="http://www.w3.org/2000/svg" width="30" height="30" viewBox="0 0 30 30" fill="none">
	<path d="M22.02 16.1215C21.0591 15.7115 19.9458 15.9809 19.2836 16.7894L17.3383 19.1679C14.6429 17.6037 12.3928 15.3541 10.8284 12.6593L13.2015 10.7201C14.0101 10.0581 14.2855 8.94506 13.8694 7.98429L11.0569 1.42292C10.6174 0.391851 9.50997 -0.182268 8.41425 0.0520663L1.8516 1.45807C0.773454 1.68655 0 2.64146 0 3.74869C0 17.2932 10.2659 28.4475 23.4439 29.8477C24.0181 29.9063 24.5923 29.9531 25.1783 29.9766H25.1841C25.5416 29.9883 25.8931 30 26.2506 30C27.358 30 28.3131 29.2267 28.5416 28.1488L29.9479 21.5874C30.1823 20.4919 29.6081 19.3847 28.5768 18.9453L22.0142 16.1333L22.02 16.1215ZM25.8697 27.1821C13.2308 26.9771 3.01764 16.766 2.81842 4.12948L8.63105 2.88165L11.1506 8.76345L9.04707 10.4858C7.98064 11.3587 7.70525 12.876 8.39667 14.0711C10.2073 17.1936 12.8089 19.7947 15.932 21.605C17.1273 22.2963 18.6449 22.0209 19.518 20.9547L21.2407 18.8515L27.1236 21.3706L25.8697 27.1821Z" fill="#00589B" />
</svg>
